<svg id="Layer_1" data-name="Layer 1" xmlns="http://www.w3.org/2000/svg" viewBox="0 0 158.96 132.22"><title>Artboard 1</title><path d="M145,26.52A37.66,37.66,0,0,0,130.2,11.14a42.56,42.56,0,0,0-21.47-5.41h-28v91h28.19a42.76,42.76,0,0,0,21.43-5.5,37.33,37.33,0,0,0,14.72-15.31,47.52,47.52,0,0,0,5.22-22.56V49.17A47.39,47.39,0,0,0,145,26.52Zm-13.69,27.4q-.12,13.38-5.94,20.56t-16.81,7.19H99.48V20.92h9.25q11.05,0,16.81,7.16t5.75,21Z" style="fill:#fff"/><polygon points="63.42 59.55 27.42 59.55 27.42 96.73 8.67 96.73 8.67 5.73 67.92 5.73 67.92 20.92 27.42 20.92 27.42 44.42 63.42 44.42 63.42 59.55" style="fill:#fff"/><path d="M8.48,117.48h142" style="fill:#134f5c;stroke:#fff;stroke-linejoin:round;stroke-width:16px"/></svg>