<svg id="Layer_1" data-name="Layer 1" xmlns="http://www.w3.org/2000/svg" viewBox="0 0 736 185.94"><title>Artboard 1</title><path d="M100.27,154.18h3.52V173a7.8,7.8,0,0,1-2.3,6,8.52,8.52,0,0,1-6.09,2.14,8.76,8.76,0,0,1-6.16-2,7.31,7.31,0,0,1-2.2-5.67h3.5A4.93,4.93,0,0,0,91.79,177a4.86,4.86,0,0,0,3.61,1.26,4.69,4.69,0,0,0,3.51-1.36,5.28,5.28,0,0,0,1.36-3.83Zm21.13,24.58a7.17,7.17,0,0,1-5.78,2.31,6.15,6.15,0,0,1-4.81-1.83,7.9,7.9,0,0,1-1.66-5.42V161h3.36v12.74q0,4.49,3.66,4.48,3.85,0,5.14-2.87V161h3.37v19.72h-3.22ZM133,161l.11,2.47a7.23,7.23,0,0,1,5.9-2.83q6.27,0,6.32,7.05v13h-3.38V167.66a4.5,4.5,0,0,0-1-3.15,3.9,3.9,0,0,0-3-1,4.87,4.87,0,0,0-2.89.88,5.88,5.88,0,0,0-1.92,2.29v14.05h-3.38V161Zm22-4.78V161h3.68v2.61H155v12.22a2.78,2.78,0,0,0,.48,1.78,2.09,2.09,0,0,0,1.69.6,8.91,8.91,0,0,0,1.61-.22v2.73a10,10,0,0,1-2.6.36,4.23,4.23,0,0,1-3.42-1.36,5.94,5.94,0,0,1-1.14-3.89V163.6H148V161h3.59v-4.78Zm6.36,14.45a11.61,11.61,0,0,1,1.14-5.2,8.45,8.45,0,0,1,3.17-3.58,8.69,8.69,0,0,1,4.64-1.25,8.31,8.31,0,0,1,6.51,2.78,10.73,10.73,0,0,1,2.49,7.43v.23a11.71,11.71,0,0,1-1.11,5.17A8.37,8.37,0,0,1,175,179.8a8.76,8.76,0,0,1-4.72,1.27,8.34,8.34,0,0,1-6.5-2.78,10.71,10.71,0,0,1-2.48-7.39Zm3.39.41a8.48,8.48,0,0,0,1.51,5.27,4.9,4.9,0,0,0,4.08,2,4.8,4.8,0,0,0,4.08-2,9.2,9.2,0,0,0,1.51-5.64,8.42,8.42,0,0,0-1.54-5.25,5.12,5.12,0,0,0-8.11,0A9.18,9.18,0,0,0,164.72,171.07ZM195,175.48a2.45,2.45,0,0,0-1-2.11,9.93,9.93,0,0,0-3.6-1.32,17.13,17.13,0,0,1-4.06-1.31,5.81,5.81,0,0,1-2.22-1.81,4.4,4.4,0,0,1-.72-2.53,5.13,5.13,0,0,1,2-4.1,9.2,9.2,0,0,1,10.67.07,5.45,5.45,0,0,1,2.1,4.42h-3.39a3,3,0,0,0-1.18-2.39,4.36,4.36,0,0,0-3-1,4.62,4.62,0,0,0-2.89.8,2.5,2.5,0,0,0-1,2.09,2.06,2.06,0,0,0,.95,1.84,11.64,11.64,0,0,0,3.5,1.19,18.57,18.57,0,0,1,4.1,1.34,5.87,5.87,0,0,1,2.31,1.89,4.63,4.63,0,0,1,.76,2.69,5,5,0,0,1-2.12,4.24,8.85,8.85,0,0,1-5.47,1.59,10.12,10.12,0,0,1-4.2-.83,6.89,6.89,0,0,1-2.85-2.34,5.69,5.69,0,0,1-1-3.25h3.38a3.49,3.49,0,0,0,1.34,2.69,6.35,6.35,0,0,0,6.42.21A2.4,2.4,0,0,0,195,175.48Zm24.93,2.84a4.84,4.84,0,0,0,3.14-1.09,3.86,3.86,0,0,0,1.5-2.74h3.18a6.1,6.1,0,0,1-1.17,3.24,7.48,7.48,0,0,1-2.86,2.43,8.78,8.78,0,0,1-10.22-1.78,10.71,10.71,0,0,1-2.37-7.34v-.58a11.73,11.73,0,0,1,1.06-5.11,8.06,8.06,0,0,1,3-3.48,8.62,8.62,0,0,1,4.67-1.24,7.88,7.88,0,0,1,5.52,2,7,7,0,0,1,2.34,5.15h-3.18a4.6,4.6,0,0,0-1.46-3.14,4.48,4.48,0,0,0-3.22-1.23,4.73,4.73,0,0,0-4,1.86,8.67,8.67,0,0,0-1.41,5.34v.63a8.51,8.51,0,0,0,1.41,5.26A4.77,4.77,0,0,0,219.92,178.32Zm10.72-7.66a11.61,11.61,0,0,1,1.14-5.2,8.52,8.52,0,0,1,3.17-3.58,8.74,8.74,0,0,1,4.64-1.25,8.34,8.34,0,0,1,6.52,2.78,10.73,10.73,0,0,1,2.48,7.43v.23a11.71,11.71,0,0,1-1.1,5.17,8.33,8.33,0,0,1-3.15,3.56,8.7,8.7,0,0,1-4.71,1.27,8.33,8.33,0,0,1-6.5-2.78,10.71,10.71,0,0,1-2.49-7.39Zm3.39.41a8.48,8.48,0,0,0,1.52,5.27,4.9,4.9,0,0,0,4.08,2,4.8,4.8,0,0,0,4.07-2,9.2,9.2,0,0,0,1.52-5.64,8.42,8.42,0,0,0-1.55-5.25,5.12,5.12,0,0,0-8.11,0A9.18,9.18,0,0,0,234,171.07ZM256,161l.11,2.47a7.23,7.23,0,0,1,5.9-2.83q6.27,0,6.32,7.05v13H265V167.66a4.5,4.5,0,0,0-1-3.15,3.9,3.9,0,0,0-3-1,4.85,4.85,0,0,0-2.89.88,5.88,5.88,0,0,0-1.92,2.29v14.05h-3.38V161Zm22-4.78V161h3.68v2.61H278v12.22a2.78,2.78,0,0,0,.48,1.78,2.09,2.09,0,0,0,1.69.6,8.91,8.91,0,0,0,1.61-.22v2.73a10,10,0,0,1-2.6.36,4.23,4.23,0,0,1-3.42-1.36,5.94,5.94,0,0,1-1.14-3.89V163.6H271V161h3.59v-4.78Zm19.8,24.5a7,7,0,0,1-.49-2.08,7.49,7.49,0,0,1-5.61,2.44,7,7,0,0,1-4.79-1.64,5.36,5.36,0,0,1-1.86-4.19,5.58,5.58,0,0,1,2.34-4.78,11.1,11.1,0,0,1,6.6-1.7h3.28v-1.55a3.79,3.79,0,0,0-1.07-2.83,4.21,4.21,0,0,0-3.1-1,4.88,4.88,0,0,0-3,.92,2.67,2.67,0,0,0-1.21,2.2h-3.4a4.66,4.66,0,0,1,1.05-2.86,7.08,7.08,0,0,1,2.85-2.17,9.59,9.59,0,0,1,3.93-.8,7.78,7.78,0,0,1,5.35,1.71,6.11,6.11,0,0,1,2,4.68v9.08a11.05,11.05,0,0,0,.69,4.31v.3Zm-5.61-2.56a6,6,0,0,0,3-.81,5.12,5.12,0,0,0,2.07-2.14v-4h-2.64q-6.21,0-6.21,3.62a3.12,3.12,0,0,0,1.05,2.49A4.1,4.1,0,0,0,292.19,178.15ZM309.09,161l.09,2.19a7.3,7.3,0,0,1,5.86-2.55q4.13,0,5.63,3.16a7.23,7.23,0,0,1,2.56-2.28,7.47,7.47,0,0,1,3.72-.88q6.49,0,6.61,6.86v13.22h-3.38v-13a4.5,4.5,0,0,0-1-3.16,4.26,4.26,0,0,0-3.25-1,4.37,4.37,0,0,0-4.54,4.13v13.09H318V167.79q0-4.31-4.21-4.3a4.53,4.53,0,0,0-4.54,2.81v14.41H305.9V161Zm28.65,9.67a11.61,11.61,0,0,1,1.14-5.2,8.52,8.52,0,0,1,3.17-3.58,8.74,8.74,0,0,1,4.64-1.25,8.34,8.34,0,0,1,6.52,2.78,10.73,10.73,0,0,1,2.48,7.43v.23a11.85,11.85,0,0,1-1.1,5.17,8.33,8.33,0,0,1-3.15,3.56,8.7,8.7,0,0,1-4.71,1.27,8.33,8.33,0,0,1-6.5-2.78,10.71,10.71,0,0,1-2.49-7.39Zm3.39.41a8.48,8.48,0,0,0,1.52,5.27,4.9,4.9,0,0,0,4.08,2,4.8,4.8,0,0,0,4.07-2,9.2,9.2,0,0,0,1.52-5.64,8.42,8.42,0,0,0-1.55-5.25,5.12,5.12,0,0,0-8.11,0A9.18,9.18,0,0,0,341.13,171.07Zm30.28,4.41a2.45,2.45,0,0,0-1-2.11,9.79,9.79,0,0,0-3.59-1.32,17,17,0,0,1-4.06-1.31,5.81,5.81,0,0,1-2.22-1.81,4.4,4.4,0,0,1-.72-2.53,5.1,5.1,0,0,1,2.05-4.1,8,8,0,0,1,5.25-1.67,8.16,8.16,0,0,1,5.42,1.74,5.47,5.47,0,0,1,2.09,4.42H371.2A3,3,0,0,0,370,164.4a4.38,4.38,0,0,0-2.95-1,4.6,4.6,0,0,0-2.89.8,2.5,2.5,0,0,0-1,2.09,2,2,0,0,0,.95,1.84,11.43,11.43,0,0,0,3.5,1.19,18.29,18.29,0,0,1,4.09,1.34,5.87,5.87,0,0,1,2.31,1.89,4.63,4.63,0,0,1,.77,2.69,5.07,5.07,0,0,1-2.12,4.24,8.85,8.85,0,0,1-5.47,1.59,10.14,10.14,0,0,1-4.21-.83,6.86,6.86,0,0,1-2.84-2.34,5.62,5.62,0,0,1-1-3.25h3.37a3.5,3.5,0,0,0,1.35,2.69,5.39,5.39,0,0,0,3.36,1,5.46,5.46,0,0,0,3.06-.77A2.4,2.4,0,0,0,371.41,175.48ZM393,156.21V161h3.68v2.61H393v12.22a2.78,2.78,0,0,0,.48,1.78,2.09,2.09,0,0,0,1.69.6,8.91,8.91,0,0,0,1.61-.22v2.73a10,10,0,0,1-2.6.36,4.23,4.23,0,0,1-3.42-1.36,5.94,5.94,0,0,1-1.14-3.89V163.6H386V161h3.59v-4.78Zm6.36,14.45a11.61,11.61,0,0,1,1.14-5.2,8.52,8.52,0,0,1,3.17-3.58,8.69,8.69,0,0,1,4.64-1.25,8.34,8.34,0,0,1,6.52,2.78,10.78,10.78,0,0,1,2.48,7.43v.23a11.71,11.71,0,0,1-1.11,5.17,8.31,8.31,0,0,1-3.14,3.56,8.73,8.73,0,0,1-4.72,1.27,8.36,8.36,0,0,1-6.5-2.78,10.76,10.76,0,0,1-2.48-7.39Zm3.39.41a8.48,8.48,0,0,0,1.51,5.27,4.9,4.9,0,0,0,4.08,2,4.8,4.8,0,0,0,4.08-2,9.2,9.2,0,0,0,1.52-5.64,8.42,8.42,0,0,0-1.55-5.25,5.12,5.12,0,0,0-8.11,0A9.18,9.18,0,0,0,402.74,171.07Zm18-.39a11.56,11.56,0,0,1,2.14-7.28A7.33,7.33,0,0,1,434,163V152.71h3.37v28h-3.09l-.17-2.11a6.85,6.85,0,0,1-5.63,2.47,6.73,6.73,0,0,1-5.59-2.8,11.67,11.67,0,0,1-2.16-7.32Zm3.38.39a8.83,8.83,0,0,0,1.37,5.25,4.51,4.51,0,0,0,3.83,1.89,4.92,4.92,0,0,0,4.69-2.87v-9.07a5,5,0,0,0-4.64-2.78,4.52,4.52,0,0,0-3.88,1.92A9.7,9.7,0,0,0,424.09,171.07Zm17.6-.41a11.61,11.61,0,0,1,1.14-5.2,8.52,8.52,0,0,1,3.17-3.58,8.69,8.69,0,0,1,4.64-1.25,8.34,8.34,0,0,1,6.52,2.78,10.78,10.78,0,0,1,2.48,7.43v.23a11.71,11.71,0,0,1-1.11,5.17,8.31,8.31,0,0,1-3.14,3.56,8.73,8.73,0,0,1-4.72,1.27,8.36,8.36,0,0,1-6.5-2.78,10.76,10.76,0,0,1-2.48-7.39Zm3.39.41a8.48,8.48,0,0,0,1.51,5.27,4.91,4.91,0,0,0,4.08,2,4.8,4.8,0,0,0,4.08-2,9.2,9.2,0,0,0,1.52-5.64,8.42,8.42,0,0,0-1.55-5.25,5.12,5.12,0,0,0-8.11,0A9.18,9.18,0,0,0,445.08,171.07Zm30.27,4.41a2.45,2.45,0,0,0-1-2.11,9.86,9.86,0,0,0-3.59-1.32,17.07,17.07,0,0,1-4.07-1.31,5.69,5.69,0,0,1-2.21-1.81,4.4,4.4,0,0,1-.72-2.53,5.12,5.12,0,0,1,2-4.1,8.07,8.07,0,0,1,5.25-1.67,8.19,8.19,0,0,1,5.43,1.74,5.47,5.47,0,0,1,2.09,4.42h-3.39A3,3,0,0,0,474,164.4a4.38,4.38,0,0,0-3-1,4.62,4.62,0,0,0-2.89.8,2.52,2.52,0,0,0-1,2.09,2.06,2.06,0,0,0,.95,1.84,11.64,11.64,0,0,0,3.5,1.19,18.39,18.39,0,0,1,4.1,1.34,5.87,5.87,0,0,1,2.31,1.89,4.63,4.63,0,0,1,.77,2.69,5,5,0,0,1-2.13,4.24,8.83,8.83,0,0,1-5.47,1.59,10.12,10.12,0,0,1-4.2-.83,6.79,6.79,0,0,1-2.84-2.34,5.63,5.63,0,0,1-1-3.25h3.38a3.49,3.49,0,0,0,1.34,2.69,5.43,5.43,0,0,0,3.36,1,5.52,5.52,0,0,0,3.07-.77A2.39,2.39,0,0,0,475.35,175.48ZM496,180.71h-3.38v-28H496Zm4.49-10.05a11.61,11.61,0,0,1,1.14-5.2,8.48,8.48,0,0,1,3.18-3.58,8.69,8.69,0,0,1,4.64-1.25,8.32,8.32,0,0,1,6.51,2.78,10.73,10.73,0,0,1,2.49,7.43v.23a11.71,11.71,0,0,1-1.11,5.17,8.37,8.37,0,0,1-3.14,3.56,8.76,8.76,0,0,1-4.72,1.27,8.33,8.33,0,0,1-6.5-2.78,10.71,10.71,0,0,1-2.49-7.39Zm3.39.41a8.48,8.48,0,0,0,1.52,5.27,4.9,4.9,0,0,0,4.08,2,4.8,4.8,0,0,0,4.08-2,9.2,9.2,0,0,0,1.51-5.64,8.36,8.36,0,0,0-1.55-5.25,5.11,5.11,0,0,0-8.1,0A9.11,9.11,0,0,0,503.91,171.07Zm30.28,4.41a2.47,2.47,0,0,0-1-2.11,9.93,9.93,0,0,0-3.6-1.32,17,17,0,0,1-4.06-1.31,5.81,5.81,0,0,1-2.22-1.81,4.4,4.4,0,0,1-.72-2.53,5.1,5.1,0,0,1,2.05-4.1,8,8,0,0,1,5.25-1.67,8.15,8.15,0,0,1,5.42,1.74,5.44,5.44,0,0,1,2.09,4.42H534a3,3,0,0,0-1.17-2.39,4.36,4.36,0,0,0-2.95-1,4.62,4.62,0,0,0-2.89.8,2.5,2.5,0,0,0-1,2.09,2,2,0,0,0,.95,1.84,11.54,11.54,0,0,0,3.5,1.19,18.29,18.29,0,0,1,4.09,1.34,5.83,5.83,0,0,1,2.32,1.89,4.63,4.63,0,0,1,.76,2.69,5.07,5.07,0,0,1-2.12,4.24,8.85,8.85,0,0,1-5.47,1.59,10.09,10.09,0,0,1-4.2-.83,6.89,6.89,0,0,1-2.85-2.34,5.62,5.62,0,0,1-1-3.25h3.38a3.49,3.49,0,0,0,1.34,2.69,5.39,5.39,0,0,0,3.36,1,5.46,5.46,0,0,0,3.06-.77A2.4,2.4,0,0,0,534.19,175.48Zm23.52.65L562.58,161H566L559,180.71h-2.57L549.24,161h3.45Zm10.4-5.47a11.61,11.61,0,0,1,1.14-5.2,8.52,8.52,0,0,1,3.17-3.58,8.69,8.69,0,0,1,4.64-1.25,8.34,8.34,0,0,1,6.52,2.78,10.78,10.78,0,0,1,2.48,7.43v.23a11.71,11.71,0,0,1-1.11,5.17,8.31,8.31,0,0,1-3.14,3.56,8.73,8.73,0,0,1-4.72,1.27,8.36,8.36,0,0,1-6.5-2.78,10.76,10.76,0,0,1-2.48-7.39Zm3.39.41a8.48,8.48,0,0,0,1.51,5.27,4.9,4.9,0,0,0,4.08,2,4.8,4.8,0,0,0,4.08-2,9.2,9.2,0,0,0,1.52-5.64,8.42,8.42,0,0,0-1.55-5.25,5.12,5.12,0,0,0-8.11,0A9.18,9.18,0,0,0,571.5,171.07Zm23.37-14.86V161h3.68v2.61h-3.68v12.22a2.78,2.78,0,0,0,.48,1.78,2.09,2.09,0,0,0,1.69.6,8.91,8.91,0,0,0,1.61-.22v2.73a10,10,0,0,1-2.6.36,4.23,4.23,0,0,1-3.42-1.36,5.94,5.94,0,0,1-1.14-3.89V163.6H587.9V161h3.59v-4.78Zm6.36,14.45a11.61,11.61,0,0,1,1.14-5.2,8.45,8.45,0,0,1,3.17-3.58,8.69,8.69,0,0,1,4.64-1.25,8.31,8.31,0,0,1,6.51,2.78,10.73,10.73,0,0,1,2.49,7.43v.23a11.71,11.71,0,0,1-1.11,5.17,8.37,8.37,0,0,1-3.14,3.56,8.76,8.76,0,0,1-4.72,1.27,8.34,8.34,0,0,1-6.5-2.78,10.71,10.71,0,0,1-2.48-7.39Zm3.39.41a8.48,8.48,0,0,0,1.51,5.27,4.9,4.9,0,0,0,4.08,2,4.8,4.8,0,0,0,4.08-2,9.2,9.2,0,0,0,1.51-5.64,8.42,8.42,0,0,0-1.54-5.25,5.12,5.12,0,0,0-8.11,0A9.18,9.18,0,0,0,604.62,171.07Zm30.27,4.41a2.45,2.45,0,0,0-1-2.11,9.93,9.93,0,0,0-3.6-1.32,17.13,17.13,0,0,1-4.06-1.31,5.81,5.81,0,0,1-2.22-1.81,4.4,4.4,0,0,1-.72-2.53,5.13,5.13,0,0,1,2-4.1,9.2,9.2,0,0,1,10.67.07,5.45,5.45,0,0,1,2.1,4.42h-3.39a3,3,0,0,0-1.18-2.39,4.36,4.36,0,0,0-3-1,4.62,4.62,0,0,0-2.89.8,2.5,2.5,0,0,0-1,2.09,2.06,2.06,0,0,0,1,1.84,11.54,11.54,0,0,0,3.5,1.19,18.57,18.57,0,0,1,4.1,1.34,5.87,5.87,0,0,1,2.31,1.89,4.63,4.63,0,0,1,.76,2.69,5,5,0,0,1-2.12,4.24,8.85,8.85,0,0,1-5.47,1.59,10.12,10.12,0,0,1-4.2-.83,6.89,6.89,0,0,1-2.85-2.34,5.69,5.69,0,0,1-1-3.25H626a3.49,3.49,0,0,0,1.34,2.69,6.35,6.35,0,0,0,6.42.21A2.4,2.4,0,0,0,634.89,175.48Zm7.84,3.47a2.09,2.09,0,0,1,.52-1.46,2,2,0,0,1,1.54-.59,2,2,0,0,1,2.13,2,1.9,1.9,0,0,1-.55,1.4,2,2,0,0,1-1.58.56,1.87,1.87,0,0,1-2.06-2Z" style="fill:#134f5c"/><path d="M-79.28,10.8H815.28V99.18H-79.28Z" style="fill-opacity:0;fill-rule:evenodd"/><path d="M60.38,63.69h-36v37.18H5.63v-91H64.88V25.06H24.38v23.5h36Zm33.25,37.18H75.5V33.25H93.63ZM74.44,15.75a8.87,8.87,0,0,1,2.72-6.69,10.2,10.2,0,0,1,7.4-2.62,10.25,10.25,0,0,1,7.38,2.62,8.86,8.86,0,0,1,2.75,6.69,8.88,8.88,0,0,1-2.78,6.75,10.29,10.29,0,0,1-7.35,2.62,10.25,10.25,0,0,1-7.34-2.62A8.85,8.85,0,0,1,74.44,15.75Zm70.69,66.44A5.82,5.82,0,0,0,141.84,77q-3.27-1.91-10.53-3.41-24.12-5.06-24.12-20.5,0-9,7.47-15t19.53-6q12.87,0,20.59,6.06a19.09,19.09,0,0,1,7.72,15.75H144.44a8.75,8.75,0,0,0-2.5-6.4q-2.5-2.53-7.81-2.54c-3,0-5.4.69-7.07,2.07a6.52,6.52,0,0,0-2.5,5.25A5.56,5.56,0,0,0,127.41,57q2.84,1.84,9.59,3.19a77.31,77.31,0,0,1,11.38,3q14.31,5.25,14.31,18.19,0,9.24-7.94,15t-20.5,5.71a35.73,35.73,0,0,1-15.09-3,25.31,25.31,0,0,1-10.35-8.31,19.31,19.31,0,0,1-3.75-11.41h17.13a9.41,9.41,0,0,0,3.56,7.38q3.31,2.56,8.88,2.56c3.45,0,6.07-.65,7.84-2A6.12,6.12,0,0,0,145.13,82.19Zm57.31,5.37a11.85,11.85,0,0,0,8.12-2.75,9.59,9.59,0,0,0,3.25-7.31h16.94A23.13,23.13,0,0,1,227,90.09,24.75,24.75,0,0,1,216.91,99a31.65,31.65,0,0,1-14.16,3.15q-14.5,0-22.87-9.21T171.5,67.44V66.25q0-15.63,8.31-24.94T202.63,32q12.68,0,20.34,7.22t7.78,19.22H213.81a12.25,12.25,0,0,0-3.25-8.53,10.85,10.85,0,0,0-8.25-3.29q-6.31,0-9.53,4.6t-3.22,14.9V68q0,10.44,3.19,15C194.88,86,198.1,87.56,202.44,87.56Zm77.81,13.31a19.92,19.92,0,0,1-1.81-6.06q-6.57,7.32-17.06,7.31-9.94,0-16.47-5.75a18.46,18.46,0,0,1-6.53-14.5q0-10.74,8-16.5t23-5.81h8.31V55.69a11.1,11.1,0,0,0-2.41-7.5q-2.4-2.82-7.59-2.82a10.77,10.77,0,0,0-7.16,2.19,7.43,7.43,0,0,0-2.59,6H239.88a18.09,18.09,0,0,1,3.62-10.87,24,24,0,0,1,10.25-7.85A37.49,37.49,0,0,1,268.63,32q12.5,0,19.84,6.28t7.34,17.66V85.25q.06,9.63,2.69,14.56v1.06ZM265.31,88.31a15.54,15.54,0,0,0,7.38-1.78,11.75,11.75,0,0,0,5-4.78V70.12h-6.75q-13.56,0-14.44,9.38l-.06,1.06a7.22,7.22,0,0,0,2.37,5.56A9.23,9.23,0,0,0,265.31,88.31Zm63.44,12.56H310.63v-96h18.12Zm47.94,0v-91h28a42.59,42.59,0,0,1,21.47,5.41,37.66,37.66,0,0,1,14.78,15.38,47.39,47.39,0,0,1,5.31,22.65V57.5A47.52,47.52,0,0,1,441,80.06a37.33,37.33,0,0,1-14.72,15.31,42.76,42.76,0,0,1-21.43,5.5Zm18.75-75.81V85.81h9.06q11,0,16.81-7.19t5.94-20.56V53.25q0-13.87-5.75-21t-16.81-7.16Zm82.31,75.81H459.63V33.25h18.12ZM458.56,15.75a8.91,8.91,0,0,1,2.72-6.69,11.73,11.73,0,0,1,14.78,0,8.82,8.82,0,0,1,2.75,6.69A8.85,8.85,0,0,1,476,22.5a11.61,11.61,0,0,1-14.69,0A8.88,8.88,0,0,1,458.56,15.75ZM490,66.56Q490,51,497.41,41.5t20-9.5q11.11,0,17.31,7.62l.75-6.37h16.37V98.62a28.87,28.87,0,0,1-4,15.44,25.88,25.88,0,0,1-11.34,10,40,40,0,0,1-17.13,3.44,37.07,37.07,0,0,1-14.5-3,25.62,25.62,0,0,1-10.68-7.66l8-11a21.12,21.12,0,0,0,16.37,7.57q7.18,0,11.19-3.85t4-10.9V95.06q-6.26,7.06-16.44,7.06a23.93,23.93,0,0,1-19.72-9.53Q490,83.07,490,67.31Zm18.06,1.31q0,9.19,3.69,14.41a11.74,11.74,0,0,0,10.13,5.22q8.25,0,11.81-6.19V52.87q-3.63-6.18-11.69-6.18A11.82,11.82,0,0,0,511.78,52Q508.06,57.31,508.06,67.87Zm76.69,33H566.63V33.25h18.12ZM565.56,15.75a8.91,8.91,0,0,1,2.72-6.69,11.73,11.73,0,0,1,14.78,0,8.82,8.82,0,0,1,2.75,6.69A8.85,8.85,0,0,1,583,22.5a11.61,11.61,0,0,1-14.69,0A8.88,8.88,0,0,1,565.56,15.75Zm55.69.87V33.25h11.56V46.5H621.25V80.25q0,3.75,1.44,5.37t5.5,1.63a28.89,28.89,0,0,0,5.31-.44V100.5a37.3,37.3,0,0,1-10.94,1.62q-19,0-19.37-19.18V46.5h-9.88V33.25h9.88V16.62Zm60.81,84.25a20.21,20.21,0,0,1-1.81-6.06q-6.56,7.32-17.06,7.31-9.95,0-16.47-5.75a18.46,18.46,0,0,1-6.53-14.5q0-10.74,8-16.5t23-5.81h8.31V55.69a11.1,11.1,0,0,0-2.41-7.5q-2.4-2.82-7.59-2.82a10.77,10.77,0,0,0-7.16,2.19,7.43,7.43,0,0,0-2.59,6H641.69a18.15,18.15,0,0,1,3.62-10.87,24,24,0,0,1,10.25-7.85A37.49,37.49,0,0,1,670.44,32q12.49,0,19.84,6.28t7.35,17.66V85.25q.06,9.63,2.68,14.56v1.06ZM667.13,88.31a15.53,15.53,0,0,0,7.37-1.78,11.69,11.69,0,0,0,5-4.78V70.12h-6.75q-13.56,0-14.44,9.38l-.06,1.06a7.2,7.2,0,0,0,2.38,5.56A9.21,9.21,0,0,0,667.13,88.31Zm63.43,12.56H712.44v-96h18.12Z" style="fill:#134f5c"/><path d="M4.84,120.62h474.8" style="fill:none;stroke:#134f5c;stroke-linejoin:round;stroke-width:16px"/><path d="M568.19,120.62l163-.75" style="fill-opacity:0;fill-rule:evenodd"/><path d="M568.19,120.62l163-.75" style="fill:none;stroke:#134f5c;stroke-linejoin:round;stroke-width:16px"/></svg>